<svg version="1.1" xmlns="http://www.w3.org/2000/svg" xmlns:xlink="http://www.w3.org/1999/xlink" x="0px" y="0px"
	 width="60px" height="60px" viewBox="0 0 60 60">
    <rect x="3.993" y="1.934" fill="#77858B" stroke="#000000" stroke-miterlimit="10" stroke-opacity="0" width="14.726" height="8.504"/>
    <rect x="23.137" y="1.934" fill="#77858B" stroke="#000000" stroke-miterlimit="10" stroke-opacity="0" width="14.727" height="8.504"/>
    <rect x="42.281" y="1.934" fill="#77858B" stroke="#000000" stroke-miterlimit="10" stroke-opacity="0" width="14.726" height="8.504"/>
    <rect x="3.993" y="13.84" fill="#77858B" stroke="#000000" stroke-miterlimit="10" stroke-opacity="0" width="7.363" height="8.505"/>
    <rect x="14.301" y="13.84" fill="#77858B" stroke="#000000" stroke-miterlimit="10" stroke-opacity="0" width="14.727" height="8.505"/>
    <rect x="31.973" y="13.84" fill="#77858B" stroke="#000000" stroke-miterlimit="10" stroke-opacity="0" width="14.726" height="8.505"/>
    <rect x="49.644" y="13.84" fill="#77858B" stroke="#000000" stroke-miterlimit="10" stroke-opacity="0" width="7.363" height="8.505"/>
    <rect x="3.993" y="25.748" fill="#77858B" stroke="#000000" stroke-miterlimit="10" stroke-opacity="0" width="14.726" height="8.505"/>
    <rect x="23.137" y="25.748" fill="#77858B" stroke="#000000" stroke-miterlimit="10" stroke-opacity="0" width="14.727" height="8.505"/>
    <rect x="42.281" y="25.748" fill="#77858B" stroke="#000000" stroke-miterlimit="10" stroke-opacity="0" width="14.726" height="8.505"/>
    <rect x="3.993" y="37.654" fill="#77858B" stroke="#000000" stroke-miterlimit="10" stroke-opacity="0" width="7.363" height="8.505"/>
    <rect x="14.301" y="37.654" fill="#77858B" stroke="#000000" stroke-miterlimit="10" stroke-opacity="0" width="14.727" height="8.505"/>
    <rect x="31.973" y="37.654" fill="#77858B" stroke="#000000" stroke-miterlimit="10" stroke-opacity="0" width="14.726" height="8.505"/>
    <rect x="49.644" y="37.654" fill="#77858B" stroke="#000000" stroke-miterlimit="10" stroke-opacity="0" width="7.363" height="8.505"/>
    <rect x="3.993" y="49.562" fill="#77858B" stroke="#000000" stroke-miterlimit="10" stroke-opacity="0" width="14.726" height="8.504"/>
    <rect x="23.137" y="49.562" fill="#77858B" stroke="#000000" stroke-miterlimit="10" stroke-opacity="0" width="14.727" height="8.504"/>
    <rect x="42.281" y="49.562" fill="#77858B" stroke="#000000" stroke-miterlimit="10" stroke-opacity="0" width="14.726" height="8.504"/>
</svg>
