<svg version="1.1" xmlns="http://www.w3.org/2000/svg" xmlns:xlink="http://www.w3.org/1999/xlink" x="0px" y="0px"
	 width="120px" height="60px" viewBox="-30 0 120 60">
    <path fill="#FFFFFF" stroke="#77858B" stroke-width="2" d="M-3.395,59.04c-14.011,0-25.373-8.319-25.373-18.572l0,0
	c0.008-8.233,7.331-15.173,17.453-17.601l0,0c0.35-6.996,8.189-12.585,17.833-12.585l0,0c3.083,0,5.981,0.581,8.5,1.6l0,0
	C20.372,5.359,30.122,0.993,41.274,0.986l0,0c16.7,0.009,30.269,9.77,30.655,21.921l0,0c9.986,2.493,17.183,9.396,17.192,17.561l0,0
	c0,10.253-11.362,18.572-25.381,18.572l0,0H-3.395L-3.395,59.04L-3.395,59.04L-3.395,59.04z"/>
</svg>