<svg version="1.1" xmlns="http://www.w3.org/2000/svg" xmlns:xlink="http://www.w3.org/1999/xlink" x="0px" y="0px"
	 width="60px" height="60px" viewBox="0 0 60 60">
    <line fill="none" stroke="#77858B" stroke-width="4" stroke-linejoin="round" stroke-miterlimit="8" x1="18" y1="38" x2="41" y2="38"/>
    <path fill="#FFFFFF" stroke="#77858B" stroke-width="4" stroke-linejoin="round" stroke-miterlimit="8" d="M53,23.237
    	C53,27.376,50.883,31,46.558,31h-32.31C9.922,31,6,27.376,6,23.237V9.185C6,5.045,9.922,2,14.248,2h32.31
    	C50.883,2,53,5.045,53,9.185V23.237z"/>
    <rect x="18" y="15" fill="none" stroke="#77858B" stroke-width="2" stroke-linejoin="round" stroke-miterlimit="8" width="14" height="6"/>
    <polyline fill="none" stroke="#77858B" stroke-linejoin="round" stroke-miterlimit="8" points="26.5,15 26.5,8.5 35,8.5 "/>
    <rect x="35.5" y="7.5" fill="none" stroke="#77858B" stroke-linejoin="round" stroke-miterlimit="8" width="9" height="2"/>
    <polyline fill="none" stroke="#77858B" stroke-linejoin="round" stroke-miterlimit="8" points="40.5,10 40.5,18.5 32,18.5 "/>
    <line fill="none" stroke="#77858B" stroke-linejoin="round" stroke-miterlimit="8" x1="23" y1="23.5" x2="27" y2="23.5"/>
</svg>